<svg width="16" height="12" viewBox="0 0 16 12" fill="none" xmlns="http://www.w3.org/2000/svg">
<path d="M0.75 0H15.25C15.4489 0 15.6397 0.0987719 15.7803 0.274587C15.921 0.450403 16 0.68886 16 0.9375C16 1.18614 15.921 1.4246 15.7803 1.60041C15.6397 1.77623 15.4489 1.875 15.25 1.875H0.75C0.551088 1.875 0.360322 1.77623 0.21967 1.60041C0.0790176 1.4246 0 1.18614 0 0.9375C0 0.68886 0.0790176 0.450403 0.21967 0.274587C0.360322 0.0987719 0.551088 0 0.75 0ZM3 5.9375C3 5.68886 3.07902 5.4504 3.21967 5.27459C3.36032 5.09877 3.55109 5 3.75 5H12.25C12.4489 5 12.6397 5.09877 12.7803 5.27459C12.921 5.4504 13 5.68886 13 5.9375C13 6.18614 12.921 6.4246 12.7803 6.60041C12.6397 6.77623 12.4489 6.875 12.25 6.875H3.75C3.55109 6.875 3.36032 6.77623 3.21967 6.60041C3.07902 6.4246 3 6.18614 3 5.9375ZM6 10.9375C6 10.6889 6.07902 10.4504 6.21967 10.2746C6.36032 10.0988 6.55109 10 6.75 10H9.25C9.44891 10 9.63968 10.0988 9.78033 10.2746C9.92098 10.4504 10 10.6889 10 10.9375C10 11.1861 9.92098 11.4246 9.78033 11.6004C9.63968 11.7762 9.44891 11.875 9.25 11.875H6.75C6.55109 11.875 6.36032 11.7762 6.21967 11.6004C6.07902 11.4246 6 11.1861 6 10.9375Z" fill="#212121"/>
</svg>
