<svg width="73" height="36" viewBox="0 0 73 36" fill="none" xmlns="http://www.w3.org/2000/svg">
<path d="M13.6364 34.9091H5.55068e-06L5.79546 -3.8147e-06H18.8864C22.4773 -3.8147e-06 25.4773 0.721587 27.8864 2.16477C30.2955 3.60795 32.0057 5.67045 33.0171 8.35227C34.0284 11.0341 34.2273 14.2273 33.6136 17.9318C33.0227 21.5 31.8239 24.5511 30.0171 27.0852C28.2216 29.6193 25.9261 31.5568 23.1307 32.8977C20.3466 34.2386 17.1818 34.9091 13.6364 34.9091ZM10.8068 26.8636H14.25C15.9773 26.8636 17.5171 26.5625 18.8693 25.9602C20.233 25.3466 21.3693 24.3239 22.2784 22.892C23.1989 21.4489 23.8636 19.4773 24.2727 16.9773C24.6591 14.6136 24.6477 12.7898 24.2386 11.5057C23.8296 10.2102 23.0511 9.3125 21.9034 8.8125C20.7557 8.30113 19.2727 8.04545 17.4546 8.04545H13.9432L10.8068 26.8636ZM55.3849 -3.8147e-06H64.7259L60.7713 23.9318C60.3849 26.2045 59.4872 28.2045 58.0781 29.9318C56.669 31.6477 54.8906 32.9886 52.7429 33.9545C50.5952 34.9091 48.2259 35.3864 45.6349 35.3864C43.4077 35.3864 41.4304 35 39.7031 34.2273C37.9872 33.4432 36.7145 32.2159 35.8849 30.5455C35.0668 28.8636 34.8849 26.6818 35.3395 24H44.8168C44.7031 24.8864 44.7259 25.6307 44.8849 26.233C45.044 26.8239 45.3395 27.2727 45.7713 27.5795C46.2031 27.875 46.7713 28.0227 47.4759 28.0227C48.1804 28.0227 48.7997 27.8693 49.3338 27.5625C49.8679 27.2443 50.3111 26.7841 50.6634 26.1818C51.0156 25.5682 51.2713 24.8182 51.4304 23.9318L55.3849 -3.8147e-06ZM67.2358 35.4545C65.9063 35.4545 64.821 34.9943 63.9801 34.0739C63.1506 33.142 62.804 32.0114 62.9403 30.6818C63.0767 29.3864 63.6619 28.2784 64.696 27.358C65.7415 26.4375 66.929 25.9773 68.2585 25.9773C69.5199 25.9773 70.571 26.4375 71.4119 27.358C72.2642 28.2784 72.6222 29.3864 72.4858 30.6818C72.3949 31.5682 72.0824 32.375 71.5483 33.1023C71.0256 33.8182 70.3778 34.392 69.6051 34.8239C68.8438 35.2443 68.054 35.4545 67.2358 35.4545Z" fill="white"/>
</svg>
