<svg width="237" height="49" viewBox="0 0 237 49" fill="none" xmlns="http://www.w3.org/2000/svg">
<path d="M9.784 33L17.272 16.2H21.112L28.624 33H24.544L18.4 18.168H19.936L13.768 33H9.784ZM13.528 29.4L14.56 26.448H23.2L24.256 29.4H13.528ZM30.103 33V15.192H33.847V33H30.103ZM40.4178 30.36L40.5138 25.8L46.5378 20.088H51.0018L45.2178 25.968L43.2738 27.552L40.4178 30.36ZM37.3218 33V15.192H41.0658V33H37.3218ZM46.9458 33L42.5778 27.576L44.9298 24.672L51.4818 33H46.9458ZM58.3791 33.192C57.3071 33.192 56.3471 32.984 55.4991 32.568C54.6671 32.152 54.0191 31.52 53.5551 30.672C53.0911 29.808 52.8591 28.712 52.8591 27.384V20.088H56.6031V26.832C56.6031 27.904 56.8271 28.696 57.2751 29.208C57.7391 29.704 58.3871 29.952 59.2191 29.952C59.7951 29.952 60.3071 29.832 60.7551 29.592C61.2031 29.336 61.5551 28.952 61.8111 28.44C62.0671 27.912 62.1951 27.256 62.1951 26.472V20.088H65.9391V33H62.3871V29.448L63.0351 30.48C62.6031 31.376 61.9631 32.056 61.1151 32.52C60.2831 32.968 59.3711 33.192 58.3791 33.192ZM73.7517 33.192C72.6477 33.192 71.5837 33.064 70.5597 32.808C69.5517 32.536 68.7517 32.2 68.1597 31.8L69.4077 29.112C69.9997 29.48 70.6957 29.784 71.4957 30.024C72.3117 30.248 73.1117 30.36 73.8957 30.36C74.7597 30.36 75.3677 30.256 75.7197 30.048C76.0877 29.84 76.2717 29.552 76.2717 29.184C76.2717 28.88 76.1277 28.656 75.8397 28.512C75.5677 28.352 75.1997 28.232 74.7357 28.152C74.2717 28.072 73.7597 27.992 73.1997 27.912C72.6557 27.832 72.1037 27.728 71.5437 27.6C70.9837 27.456 70.4717 27.248 70.0077 26.976C69.5437 26.704 69.1677 26.336 68.8797 25.872C68.6077 25.408 68.4717 24.808 68.4717 24.072C68.4717 23.256 68.7037 22.536 69.1677 21.912C69.6477 21.288 70.3357 20.8 71.2317 20.448C72.1277 20.08 73.1997 19.896 74.4477 19.896C75.3277 19.896 76.2237 19.992 77.1357 20.184C78.0477 20.376 78.8077 20.656 79.4157 21.024L78.1677 23.688C77.5437 23.32 76.9117 23.072 76.2717 22.944C75.6477 22.8 75.0397 22.728 74.4477 22.728C73.6157 22.728 73.0077 22.84 72.6237 23.064C72.2397 23.288 72.0477 23.576 72.0477 23.928C72.0477 24.248 72.1837 24.488 72.4557 24.648C72.7437 24.808 73.1197 24.936 73.5837 25.032C74.0477 25.128 74.5517 25.216 75.0957 25.296C75.6557 25.36 76.2157 25.464 76.7757 25.608C77.3357 25.752 77.8397 25.96 78.2877 26.232C78.7517 26.488 79.1277 26.848 79.4157 27.312C79.7037 27.76 79.8477 28.352 79.8477 29.088C79.8477 29.888 79.6077 30.6 79.1277 31.224C78.6477 31.832 77.9517 32.312 77.0397 32.664C76.1437 33.016 75.0477 33.192 73.7517 33.192ZM82.1577 33V20.088H85.7337V23.736L85.2297 22.68C85.6137 21.768 86.2297 21.08 87.0777 20.616C87.9257 20.136 88.9577 19.896 90.1737 19.896V23.352C90.0137 23.336 89.8697 23.328 89.7417 23.328C89.6137 23.312 89.4777 23.304 89.3337 23.304C88.3097 23.304 87.4777 23.6 86.8377 24.192C86.2137 24.768 85.9017 25.672 85.9017 26.904V33H82.1577ZM92.7363 23.16L94.3203 17.4L94.8483 19.584C94.1603 19.584 93.5923 19.384 93.1443 18.984C92.7123 18.568 92.4963 18.008 92.4963 17.304C92.4963 16.616 92.7203 16.064 93.1683 15.648C93.6163 15.216 94.1683 15 94.8242 15C95.4963 15 96.0483 15.216 96.4803 15.648C96.9123 16.064 97.1283 16.616 97.1283 17.304C97.1283 17.512 97.1123 17.72 97.0803 17.928C97.0643 18.12 97.0083 18.352 96.9123 18.624C96.8323 18.896 96.6963 19.256 96.5043 19.704L95.1123 23.16H92.7363ZM103.588 33.192C102.484 33.192 101.42 33.064 100.396 32.808C99.3876 32.536 98.5876 32.2 97.9956 31.8L99.2436 29.112C99.8356 29.48 100.532 29.784 101.332 30.024C102.148 30.248 102.948 30.36 103.732 30.36C104.596 30.36 105.204 30.256 105.556 30.048C105.924 29.84 106.108 29.552 106.108 29.184C106.108 28.88 105.964 28.656 105.676 28.512C105.404 28.352 105.036 28.232 104.572 28.152C104.108 28.072 103.596 27.992 103.036 27.912C102.492 27.832 101.94 27.728 101.38 27.6C100.82 27.456 100.308 27.248 99.8436 26.976C99.3796 26.704 99.0036 26.336 98.7156 25.872C98.4436 25.408 98.3076 24.808 98.3076 24.072C98.3076 23.256 98.5396 22.536 99.0036 21.912C99.4836 21.288 100.172 20.8 101.068 20.448C101.964 20.08 103.036 19.896 104.284 19.896C105.164 19.896 106.06 19.992 106.972 20.184C107.884 20.376 108.644 20.656 109.252 21.024L108.004 23.688C107.38 23.32 106.748 23.072 106.108 22.944C105.484 22.8 104.876 22.728 104.284 22.728C103.452 22.728 102.844 22.84 102.46 23.064C102.076 23.288 101.884 23.576 101.884 23.928C101.884 24.248 102.02 24.488 102.292 24.648C102.58 24.808 102.956 24.936 103.42 25.032C103.884 25.128 104.388 25.216 104.932 25.296C105.492 25.36 106.052 25.464 106.612 25.608C107.172 25.752 107.676 25.96 108.124 26.232C108.588 26.488 108.964 26.848 109.252 27.312C109.54 27.76 109.684 28.352 109.684 29.088C109.684 29.888 109.444 30.6 108.964 31.224C108.484 31.832 107.788 32.312 106.876 32.664C105.98 33.016 104.884 33.192 103.588 33.192Z" fill="#75C310"/>
<path d="M119.055 33V16.2H126.327C127.831 16.2 129.127 16.448 130.215 16.944C131.303 17.424 132.143 18.12 132.735 19.032C133.327 19.944 133.623 21.032 133.623 22.296C133.623 23.544 133.327 24.624 132.735 25.536C132.143 26.448 131.303 27.152 130.215 27.648C129.127 28.128 127.831 28.368 126.327 28.368H121.215L122.943 26.616V33H119.055ZM122.943 27.048L121.215 25.2H126.111C127.311 25.2 128.207 24.944 128.799 24.432C129.391 23.92 129.687 23.208 129.687 22.296C129.687 21.368 129.391 20.648 128.799 20.136C128.207 19.624 127.311 19.368 126.111 19.368H121.215L122.943 17.52V27.048ZM142.255 33.192C140.879 33.192 139.655 32.904 138.583 32.328C137.527 31.752 136.687 30.968 136.063 29.976C135.455 28.968 135.151 27.824 135.151 26.544C135.151 25.248 135.455 24.104 136.063 23.112C136.687 22.104 137.527 21.32 138.583 20.76C139.655 20.184 140.879 19.896 142.255 19.896C143.615 19.896 144.831 20.184 145.903 20.76C146.975 21.32 147.815 22.096 148.423 23.088C149.031 24.08 149.335 25.232 149.335 26.544C149.335 27.824 149.031 28.968 148.423 29.976C147.815 30.968 146.975 31.752 145.903 32.328C144.831 32.904 143.615 33.192 142.255 33.192ZM142.255 30.12C142.879 30.12 143.439 29.976 143.935 29.688C144.431 29.4 144.823 28.992 145.111 28.464C145.399 27.92 145.543 27.28 145.543 26.544C145.543 25.792 145.399 25.152 145.111 24.624C144.823 24.096 144.431 23.688 143.935 23.4C143.439 23.112 142.879 22.968 142.255 22.968C141.631 22.968 141.071 23.112 140.575 23.4C140.079 23.688 139.679 24.096 139.375 24.624C139.087 25.152 138.943 25.792 138.943 26.544C138.943 27.28 139.087 27.92 139.375 28.464C139.679 28.992 140.079 29.4 140.575 29.688C141.071 29.976 141.631 30.12 142.255 30.12ZM151.837 33V20.088H155.413V23.736L154.909 22.68C155.293 21.768 155.909 21.08 156.757 20.616C157.605 20.136 158.637 19.896 159.853 19.896V23.352C159.693 23.336 159.549 23.328 159.421 23.328C159.293 23.312 159.157 23.304 159.013 23.304C157.989 23.304 157.157 23.6 156.517 24.192C155.893 24.768 155.581 25.672 155.581 26.904V33H151.837ZM167.805 33.192C166.285 33.192 165.101 32.808 164.253 32.04C163.405 31.256 162.981 30.096 162.981 28.56V17.232H166.725V28.512C166.725 29.056 166.869 29.48 167.157 29.784C167.445 30.072 167.837 30.216 168.333 30.216C168.925 30.216 169.429 30.056 169.845 29.736L170.853 32.376C170.469 32.648 170.005 32.856 169.461 33C168.933 33.128 168.381 33.192 167.805 33.192ZM160.989 23.256V20.376H169.941V23.256H160.989ZM173.411 33V19.8C173.411 18.344 173.843 17.184 174.707 16.32C175.571 15.44 176.803 15 178.403 15C178.947 15 179.467 15.056 179.963 15.168C180.475 15.28 180.907 15.456 181.259 15.696L180.275 18.408C180.067 18.264 179.835 18.152 179.579 18.072C179.323 17.992 179.051 17.952 178.763 17.952C178.219 17.952 177.795 18.112 177.491 18.432C177.203 18.736 177.059 19.2 177.059 19.824V21.024L177.155 22.632V33H173.411ZM171.419 23.256V20.376H180.371V23.256H171.419ZM188.216 33.192C186.84 33.192 185.616 32.904 184.544 32.328C183.488 31.752 182.648 30.968 182.024 29.976C181.416 28.968 181.112 27.824 181.112 26.544C181.112 25.248 181.416 24.104 182.024 23.112C182.648 22.104 183.488 21.32 184.544 20.76C185.616 20.184 186.84 19.896 188.216 19.896C189.576 19.896 190.792 20.184 191.864 20.76C192.936 21.32 193.776 22.096 194.384 23.088C194.992 24.08 195.296 25.232 195.296 26.544C195.296 27.824 194.992 28.968 194.384 29.976C193.776 30.968 192.936 31.752 191.864 32.328C190.792 32.904 189.576 33.192 188.216 33.192ZM188.216 30.12C188.84 30.12 189.4 29.976 189.896 29.688C190.392 29.4 190.784 28.992 191.072 28.464C191.36 27.92 191.504 27.28 191.504 26.544C191.504 25.792 191.36 25.152 191.072 24.624C190.784 24.096 190.392 23.688 189.896 23.4C189.4 23.112 188.84 22.968 188.216 22.968C187.592 22.968 187.032 23.112 186.536 23.4C186.04 23.688 185.64 24.096 185.336 24.624C185.048 25.152 184.904 25.792 184.904 26.544C184.904 27.28 185.048 27.92 185.336 28.464C185.64 28.992 186.04 29.4 186.536 29.688C187.032 29.976 187.592 30.12 188.216 30.12ZM197.798 33V15.192H201.542V33H197.798ZM205.017 33V20.088H208.761V33H205.017ZM206.889 18.288C206.201 18.288 205.641 18.088 205.209 17.688C204.777 17.288 204.561 16.792 204.561 16.2C204.561 15.608 204.777 15.112 205.209 14.712C205.641 14.312 206.201 14.112 206.889 14.112C207.577 14.112 208.137 14.304 208.569 14.688C209.001 15.056 209.217 15.536 209.217 16.128C209.217 16.752 209.001 17.272 208.569 17.688C208.153 18.088 207.593 18.288 206.889 18.288ZM218.38 33.192C217.004 33.192 215.78 32.904 214.708 32.328C213.652 31.752 212.812 30.968 212.188 29.976C211.58 28.968 211.276 27.824 211.276 26.544C211.276 25.248 211.58 24.104 212.188 23.112C212.812 22.104 213.652 21.32 214.708 20.76C215.78 20.184 217.004 19.896 218.38 19.896C219.74 19.896 220.956 20.184 222.028 20.76C223.1 21.32 223.94 22.096 224.548 23.088C225.156 24.08 225.46 25.232 225.46 26.544C225.46 27.824 225.156 28.968 224.548 29.976C223.94 30.968 223.1 31.752 222.028 32.328C220.956 32.904 219.74 33.192 218.38 33.192ZM218.38 30.12C219.004 30.12 219.564 29.976 220.06 29.688C220.556 29.4 220.948 28.992 221.236 28.464C221.524 27.92 221.668 27.28 221.668 26.544C221.668 25.792 221.524 25.152 221.236 24.624C220.948 24.096 220.556 23.688 220.06 23.4C219.564 23.112 219.004 22.968 218.38 22.968C217.756 22.968 217.196 23.112 216.7 23.4C216.204 23.688 215.804 24.096 215.5 24.624C215.212 25.152 215.068 25.792 215.068 26.544C215.068 27.28 215.212 27.92 215.5 28.464C215.804 28.992 216.204 29.4 216.7 29.688C217.196 29.976 217.756 30.12 218.38 30.12Z" fill="black"/>
</svg>
