<svg width="306" height="44" viewBox="0 0 306 44" fill="none" xmlns="http://www.w3.org/2000/svg">
<path d="M34.7107 13.4572L27.5219 20.5343C21.0124 26.9426 12.1836 30.5427 2.97771 30.5427H0C9.58511 39.9788 25.1256 39.9788 34.7107 30.5427V13.4572Z" fill="#F3D5B5"/>
<path d="M0 13.4572V30.5427L7.18884 23.4657C13.6984 17.0573 22.5272 13.4572 31.733 13.4572H34.7107C25.1256 4.02111 9.58511 4.02111 0 13.4572Z" fill="#F3D5B5"/>
<path d="M44.4046 32V12.562H51.5412C53.596 12.562 55.3732 12.9785 56.8727 13.8116C58.3908 14.6446 59.5663 15.7924 60.3993 17.2549C61.2509 18.7174 61.6767 20.3927 61.6767 22.281C61.6767 24.1693 61.2509 25.8446 60.3993 27.3071C59.5663 28.7696 58.3908 29.9174 56.8727 30.7504C55.3732 31.5835 53.596 32 51.5412 32H44.4046ZM49.0698 28.1124H51.4301C52.5038 28.1124 53.4572 27.881 54.2903 27.4182C55.1418 26.9369 55.8083 26.2612 56.2896 25.3911C56.7709 24.521 57.0116 23.4843 57.0116 22.281C57.0116 21.0777 56.7709 20.041 56.2896 19.1709C55.8083 18.3008 55.1418 17.6344 54.2903 17.1716C53.4572 16.6902 52.5038 16.4496 51.4301 16.4496H49.0698V28.1124ZM71.505 32C69.8945 32 68.4783 31.7038 67.2565 31.1114C66.0346 30.5005 65.0812 29.6674 64.3963 28.6122C63.7298 27.5385 63.3966 26.2982 63.3966 24.8912C63.3966 23.3362 63.7206 22.0033 64.3685 20.8926C65.0165 19.7818 65.8773 18.9302 66.951 18.3379C68.0432 17.7269 69.2465 17.4215 70.5609 17.4215C72.0604 17.4215 73.31 17.7362 74.3097 18.3656C75.3279 18.995 76.0961 19.8559 76.6145 20.9481C77.1328 22.0218 77.392 23.2529 77.392 24.6413C77.392 24.882 77.3735 25.1689 77.3365 25.5021C77.3179 25.8169 77.2902 26.0668 77.2531 26.2519H67.9229C68.034 26.7332 68.2469 27.1405 68.5616 27.4737C68.8763 27.8069 69.2743 28.0569 69.7556 28.2235C70.237 28.3716 70.7738 28.4456 71.3662 28.4456H75.7259V32H71.505ZM67.8118 23.5583H73.2267C73.1897 23.2621 73.1341 22.9752 73.0601 22.6975C72.986 22.4198 72.8657 22.1792 72.6991 21.9755C72.551 21.7534 72.3751 21.5683 72.1715 21.4202C71.9679 21.2536 71.7272 21.124 71.4495 21.0314C71.1903 20.9388 70.8941 20.8926 70.5609 20.8926C70.1351 20.8926 69.7556 20.9666 69.4224 21.1147C69.0892 21.2628 68.8115 21.4664 68.5893 21.7256C68.3672 21.9663 68.1913 22.2532 68.0617 22.5864C67.9507 22.9012 67.8674 23.2251 67.8118 23.5583ZM89.4245 32C87.8324 32 86.3977 31.7593 85.1203 31.278C83.843 30.7782 82.76 30.084 81.8714 29.1954C80.9828 28.3068 80.2979 27.2793 79.8165 26.1131C79.3352 24.9283 79.0946 23.6509 79.0946 22.281C79.0946 20.9111 79.3352 19.643 79.8165 18.4767C80.2979 17.2919 80.9828 16.2552 81.8714 15.3666C82.7785 14.478 83.8615 13.7931 85.1203 13.3117C86.3977 12.8119 87.8324 12.562 89.4245 12.562H92.4235V16.4496H89.5355C88.6655 16.4496 87.8694 16.5977 87.1474 16.8939C86.444 17.1901 85.8331 17.6066 85.3147 18.1435C84.8149 18.6618 84.4261 19.2727 84.1484 19.9762C83.8893 20.6797 83.7597 21.4479 83.7597 22.281C83.7597 23.114 83.8893 23.8823 84.1484 24.5858C84.4261 25.2893 84.8149 25.9094 85.3147 26.4463C85.8331 26.9646 86.444 27.3719 87.1474 27.6681C87.8694 27.9643 88.6655 28.1124 89.5355 28.1124H92.4235V32H89.4245ZM100.698 32.3332C99.4388 32.3332 98.3281 32.0093 97.3654 31.3613C96.4028 30.7134 95.653 29.8433 95.1162 28.7511C94.5793 27.6403 94.3109 26.3907 94.3109 25.0023C94.3109 23.5583 94.6256 22.2717 95.255 21.1425C95.8844 19.9947 96.773 19.0876 97.9208 18.4212C99.0871 17.7547 100.457 17.4215 102.031 17.4215C103.623 17.4215 104.974 17.7547 106.085 18.4212C107.214 19.0691 108.075 19.9669 108.667 21.1147C109.278 22.244 109.584 23.5121 109.584 24.919V32H105.363V29.723H105.252C104.993 30.2228 104.659 30.6764 104.252 31.0836C103.845 31.4724 103.345 31.7779 102.753 32C102.179 32.2221 101.494 32.3332 100.698 32.3332ZM101.975 28.6122C102.623 28.6122 103.188 28.4549 103.669 28.1402C104.169 27.8069 104.548 27.3534 104.807 26.7795C105.067 26.2056 105.196 25.5669 105.196 24.8635C105.196 24.1785 105.067 23.5583 104.807 23.003C104.548 22.4476 104.169 22.0126 103.669 21.6979C103.188 21.3646 102.623 21.198 101.975 21.198C101.309 21.198 100.725 21.3646 100.226 21.6979C99.7257 22.0126 99.3462 22.4476 99.0871 23.003C98.8279 23.5583 98.6983 24.1785 98.6983 24.8635C98.6983 25.5669 98.8279 26.2056 99.0871 26.7795C99.3462 27.3534 99.7257 27.8069 100.226 28.1402C100.725 28.4549 101.309 28.6122 101.975 28.6122ZM113.85 32V21.2813H111.461V17.7547H113.85V15.8942C113.85 14.5983 114.22 13.5802 114.96 12.8397C115.701 12.0992 116.719 11.7289 118.015 11.7289H122.347V15.2555H118.959C118.737 15.2555 118.542 15.3388 118.376 15.5055C118.228 15.6536 118.154 15.8387 118.154 16.0608V17.7547H121.736V21.2813H118.154V32H113.85ZM131.056 32C129.445 32 128.029 31.7038 126.807 31.1114C125.585 30.5005 124.632 29.6674 123.947 28.6122C123.28 27.5385 122.947 26.2982 122.947 24.8912C122.947 23.3362 123.271 22.0033 123.919 20.8926C124.567 19.7818 125.428 18.9302 126.502 18.3379C127.594 17.7269 128.797 17.4215 130.112 17.4215C131.611 17.4215 132.861 17.7362 133.86 18.3656C134.878 18.995 135.647 19.8559 136.165 20.9481C136.683 22.0218 136.943 23.2529 136.943 24.6413C136.943 24.882 136.924 25.1689 136.887 25.5021C136.869 25.8169 136.841 26.0668 136.804 26.2519H127.474C127.585 26.7332 127.797 27.1405 128.112 27.4737C128.427 27.8069 128.825 28.0569 129.306 28.2235C129.788 28.3716 130.324 28.4456 130.917 28.4456H135.276V32H131.056ZM127.362 23.5583H132.777C132.74 23.2621 132.685 22.9752 132.611 22.6975C132.537 22.4198 132.416 22.1792 132.25 21.9755C132.102 21.7534 131.926 21.5683 131.722 21.4202C131.518 21.2536 131.278 21.124 131 21.0314C130.741 20.9388 130.445 20.8926 130.112 20.8926C129.686 20.8926 129.306 20.9666 128.973 21.1147C128.64 21.2628 128.362 21.4664 128.14 21.7256C127.918 21.9663 127.742 22.2532 127.612 22.5864C127.501 22.9012 127.418 23.2251 127.362 23.5583Z" fill="#F3D5B5"/>
</svg>
