<svg width="27" height="22" viewBox="0 0 27 22" fill="none" xmlns="http://www.w3.org/2000/svg">
<path d="M23.476 3.99333C23.3747 3.596 23.0867 3.296 22.7573 3.204C22.1733 3.04 19.3347 2.66667 13.3347 2.66667C7.33467 2.66667 4.49733 3.04 3.90933 3.204C3.584 3.29467 3.296 3.59467 3.19333 3.99333C3.048 4.55867 2.668 6.92667 2.668 10.6667C2.668 14.4067 3.048 16.7733 3.19333 17.3413C3.29467 17.7373 3.58267 18.0373 3.91067 18.128C4.49733 18.2933 7.33333 18.6667 13.3333 18.6667C19.3333 18.6667 22.172 18.2933 22.7587 18.1293C23.084 18.0387 23.372 17.7387 23.4747 17.34C23.6213 16.7747 24 14.4 24 10.6667C24 6.93333 23.6213 4.56 23.476 3.99333ZM26.0573 3.33067C26.6667 5.70667 26.6667 10.6667 26.6667 10.6667C26.6667 10.6667 26.6667 15.6267 26.0573 18.0027C25.7187 19.316 24.728 20.3493 23.4733 20.6987C21.196 21.3333 13.3333 21.3333 13.3333 21.3333C13.3333 21.3333 5.476 21.3333 3.19333 20.6987C1.93333 20.344 0.944 19.312 0.609333 18.0027C3.97364e-08 15.6267 0 10.6667 0 10.6667C0 10.6667 3.97364e-08 5.70667 0.609333 3.33067C0.948 2.01733 1.93867 0.984 3.19333 0.634666C5.47733 -2.38419e-07 13.3347 0 13.3347 0C13.3347 0 21.196 -2.38419e-07 23.4747 0.634666C24.7333 0.989333 25.724 2.02133 26.0587 3.33067M10.668 15.3333V6L18.668 10.6667L10.668 15.3333Z" fill="#FFF4E8"/>
</svg>
