<svg width="32" height="32" viewBox="0 0 32 32" fill="none" xmlns="http://www.w3.org/2000/svg">
<path d="M16.0014 12.0001C14.9405 12.0001 13.9231 12.4215 13.1729 13.1717C12.4228 13.9218 12.0014 14.9392 12.0014 16.0001C12.0014 17.0609 12.4228 18.0784 13.1729 18.8285C13.9231 19.5787 14.9405 20.0001 16.0014 20.0001C17.0622 20.0001 18.0796 19.5787 18.8298 18.8285C19.5799 18.0784 20.0014 17.0609 20.0014 16.0001C20.0014 14.9392 19.5799 13.9218 18.8298 13.1717C18.0796 12.4215 17.0622 12.0001 16.0014 12.0001ZM16.0014 9.33341C17.7695 9.33341 19.4652 10.0358 20.7154 11.286C21.9656 12.5363 22.668 14.232 22.668 16.0001C22.668 17.7682 21.9656 19.4639 20.7154 20.7141C19.4652 21.9644 17.7695 22.6667 16.0014 22.6667C14.2332 22.6667 12.5376 21.9644 11.2873 20.7141C10.0371 19.4639 9.33469 17.7682 9.33469 16.0001C9.33469 14.232 10.0371 12.5363 11.2873 11.286C12.5376 10.0358 14.2332 9.33341 16.0014 9.33341ZM24.668 9.00008C24.668 9.44211 24.4924 9.86603 24.1799 10.1786C23.8673 10.4912 23.4434 10.6667 23.0014 10.6667C22.5593 10.6667 22.1354 10.4912 21.8228 10.1786C21.5103 9.86603 21.3347 9.44211 21.3347 9.00008C21.3347 8.55805 21.5103 8.13413 21.8228 7.82157C22.1354 7.50901 22.5593 7.33341 23.0014 7.33341C23.4434 7.33341 23.8673 7.50901 24.1799 7.82157C24.4924 8.13413 24.668 8.55805 24.668 9.00008ZM16.0014 5.33341C12.7027 5.33341 12.164 5.34275 10.6294 5.41075C9.58402 5.46008 8.88269 5.60008 8.23202 5.85341C7.6878 6.05391 7.19565 6.37426 6.79202 6.79075C6.37505 7.19424 6.05424 7.6864 5.85335 8.23075C5.60002 8.88408 5.46002 9.58408 5.41202 10.6281C5.34269 12.1001 5.33335 12.6147 5.33335 16.0001C5.33335 19.3001 5.34269 19.8374 5.41069 21.3721C5.46002 22.4161 5.60002 23.1187 5.85202 23.7681C6.07869 24.3481 6.34535 24.7654 6.78802 25.2081C7.23735 25.6561 7.65469 25.9241 8.22802 26.1454C8.88669 26.4001 9.58802 26.5414 10.628 26.5894C12.1 26.6587 12.6147 26.6667 16 26.6667C19.3 26.6667 19.8374 26.6574 21.372 26.5894C22.4147 26.5401 23.116 26.4001 23.768 26.1481C24.3122 25.9476 24.8044 25.6272 25.208 25.2107C25.6574 24.7627 25.9254 24.3454 26.1467 23.7707C26.4 23.1147 26.5414 22.4134 26.5894 21.3707C26.6587 19.9001 26.6667 19.3841 26.6667 16.0001C26.6667 12.7014 26.6574 12.1627 26.5894 10.6281C26.54 9.58541 26.3987 8.88141 26.1467 8.23075C25.9462 7.68652 25.6258 7.19438 25.2094 6.79075C24.8059 6.37378 24.3137 6.05296 23.7694 5.85208C23.116 5.59875 22.4147 5.45875 21.372 5.41075C19.9014 5.34141 19.3867 5.33341 16 5.33341M16 2.66675C19.6227 2.66675 20.0747 2.68008 21.4974 2.74675C22.916 2.81341 23.884 3.03608 24.7334 3.36675C25.6134 3.70541 26.3547 4.16408 27.096 4.90408C27.7743 5.57039 28.2989 6.37671 28.6334 7.26675C28.9627 8.11608 29.1867 9.08408 29.2534 10.5041C29.316 11.9254 29.3334 12.3774 29.3334 16.0001C29.3334 19.6227 29.32 20.0747 29.2534 21.4961C29.1867 22.9174 28.9627 23.8827 28.6334 24.7334C28.2989 25.6234 27.7743 26.4298 27.096 27.0961C26.4297 27.7743 25.6234 28.299 24.7334 28.6334C23.884 28.9627 22.916 29.1867 21.4974 29.2534C20.0747 29.3161 19.6227 29.3334 16 29.3334C12.3774 29.3334 11.9254 29.3201 10.5027 29.2534C9.08402 29.1867 8.11735 28.9627 7.26669 28.6334C6.37665 28.299 5.57033 27.7743 4.90402 27.0961C4.22576 26.4298 3.70111 25.6234 3.36669 24.7334C3.03602 23.8841 2.81335 22.9161 2.74669 21.4961C2.68269 20.0747 2.66669 19.6227 2.66669 16.0001C2.66669 12.3774 2.68002 11.9254 2.74669 10.5041C2.81335 9.08275 3.03602 8.11741 3.36669 7.26675C3.70111 6.37671 4.22576 5.57039 4.90402 4.90408C5.57033 4.22582 6.37665 3.70117 7.26669 3.36675C8.11602 3.03608 9.08269 2.81341 10.5027 2.74675C11.9267 2.68408 12.3787 2.66675 16.0014 2.66675" fill="#FFF4E8"/>
</svg>
