<svg width="15" height="16" viewBox="0 0 15 16" fill="none" xmlns="http://www.w3.org/2000/svg">
<path fill-rule="evenodd" clip-rule="evenodd" d="M2.22605 1.33018C2.41968 0.565669 3.11228 0 3.93697 0C4.55556 0 5.09984 0.318272 5.41497 0.8H5.931C6.25159 0.470987 6.6995 0.266667 7.19516 0.266667C7.92184 0.266667 8.54597 0.705881 8.81653 1.33333H9.24856C9.51928 1.16433 9.83916 1.06667 10.1818 1.06667C10.9085 1.06667 11.5326 1.50588 11.8032 2.13333H12.978C12.9881 2.13333 12.9975 2.13604 13.0056 2.14075C13.0592 2.13584 13.1136 2.13333 13.1685 2.13333C14.1432 2.13333 14.9333 2.92348 14.9333 3.89819V9.19019L14.9333 9.2L14.9333 9.20981V9.28603C14.9333 9.31831 14.9324 9.35047 14.9307 9.38247C14.8245 13.0537 11.5234 16 7.46666 16C3.34294 16 0 12.9555 0 9.2C0 7.38722 0.778903 5.74009 2.04855 4.52109C2.04538 6.28837 2.07523 8.11544 2.21283 8.08409C2.58128 8.00009 2.29341 2.52623 2.22605 1.33018Z" fill="#212121"/>
</svg>
