<svg width="12" height="16" viewBox="0 0 12 16" fill="none" xmlns="http://www.w3.org/2000/svg">
<path fill-rule="evenodd" clip-rule="evenodd" d="M9.00807 12.3561C9.20575 11.6332 8.82203 10.1472 8.82203 10.1472C8.82203 10.1472 8.54372 11.3578 8.10885 11.8052C7.73785 12.1869 7.28332 12.4516 6.63144 12.5212C7.16441 12.2623 7.53094 11.7225 7.53094 11.0986C7.53094 10.2228 6.80869 9.51278 5.91775 9.51278C5.02682 9.51278 4.30453 10.2228 4.30453 11.0986C4.30453 11.3378 4.35844 11.5646 4.45491 11.768C3.89766 11.3241 3.81004 10.6123 3.81004 10.6123C3.81004 10.6123 3.18779 13.1958 4.90235 14.411C6.61688 15.6263 9.9756 14.5817 9.9756 14.5817C9.9756 14.5817 5.16907 17.9637 1.60738 14.2828C-1.46072 11.112 0.806601 6.93759 0.806601 6.93759C0.806601 6.93759 0.708682 7.32484 0.708682 7.77437C0.708682 8.22391 0.95241 8.56594 0.95241 8.56594C0.95241 8.56594 1.67944 7.03347 2.24525 6.41025C2.78075 5.82044 3.45204 5.34206 4.03185 4.92887C4.47816 4.61081 4.87029 4.33138 5.10447 4.06947C6.39438 2.62715 5.60347 0 5.60347 0C5.60347 0 7.05753 1.28188 7.46347 2.93743C7.61822 3.5685 7.51866 4.28653 7.42966 4.92863C7.28516 5.971 7.16838 6.81328 8.21229 6.75863C9.89922 6.67028 8.43332 4.06947 8.43332 4.06947C8.43332 4.06947 12.2599 6.08072 11.9741 9.59828C11.6882 13.1158 7.79138 13.9155 7.79138 13.9155C7.79138 13.9155 8.81035 13.0789 9.00807 12.3561Z" fill="#212121"/>
</svg>
