<svg width="16" height="16" viewBox="0 0 16 16" fill="none" xmlns="http://www.w3.org/2000/svg">
<g clip-path="url(#clip0_5_4634)">
<path fill-rule="evenodd" clip-rule="evenodd" d="M3.15845 13.7339C3.10353 13.6822 3.04922 13.6296 2.99554 13.5759C0.161644 10.742 0.161644 6.14734 2.99554 3.31347C5.82941 0.479563 14.8593 0.289978 14.8593 0.289978C14.8593 0.289978 16.0919 10.742 13.258 13.5759C10.7411 16.0927 6.83541 16.3743 4.00782 14.4206L6.2862 11.6246L9.92838 10.8383L6.95529 10.5411L8.84473 8.61725L10.9955 8.14609L9.29479 7.64243L10.9955 4.57443L8.57641 7.28781L7.64226 5.96959L7.9711 8.14609L6.2862 10.0455L5.50516 7.6424V10.8383L3.15845 13.7339Z" fill="#212121"/>
</g>
<defs>
<clipPath id="clip0_5_4634">
<rect width="16" height="16" fill="white"/>
</clipPath>
</defs>
</svg>
