<svg width="16" height="12" viewBox="0 0 16 12" fill="none" xmlns="http://www.w3.org/2000/svg">
<path fill-rule="evenodd" clip-rule="evenodd" d="M3.52387 11.5548C3.51953 11.5548 3.5165 11.5505 3.51794 11.5464L7.60278 0.00418758C7.60369 0.00167821 7.60606 0 7.60872 0H11.9694C11.9721 0 11.9745 0.00169072 11.9753 0.00421572L15.9996 11.5465C16.001 11.5506 15.998 11.5548 15.9937 11.5548H3.64663H3.52387ZM0.00629081 11.6C0.00190351 11.6 -0.00113391 11.5956 0.000405023 11.5915L3.04227 3.4705C3.04319 3.46803 3.04553 3.46641 3.04816 3.46641H5.69119C5.69556 3.46641 5.69859 3.47075 5.69709 3.47484L2.7557 11.5958C2.7548 11.5983 2.75243 11.6 2.74979 11.6H0.00629081Z" fill="#212121"/>
</svg>
