<svg width="15" height="16" viewBox="0 0 15 16" fill="none" xmlns="http://www.w3.org/2000/svg">
<path fill-rule="evenodd" clip-rule="evenodd" d="M13.6852 13.287C13.6852 13.287 11.6677 14.9051 7.65291 14.2355C4.60697 13.7275 2.98241 10.3698 2.98241 8.56497C2.98241 4.28591 6.14947 3.31213 8.29062 3.31213C10.4317 3.31213 11.8285 5.39963 11.8285 7.01588C11.8285 8.63213 10.6854 10.0458 8.90644 10.0458C7.1275 10.0458 6.60062 8.79691 6.60062 7.64869C6.60062 6.5005 7.52959 6.09597 8.37681 6.09597C9.22403 6.09597 9.51412 6.81928 9.51412 7.44094C9.51412 8.06263 9.03178 8.28525 8.62947 8.28525C8.22716 8.28525 8.18737 8.08228 8.03341 7.86897C7.87941 7.65569 8.22978 6.84831 7.65291 6.84831C7.07603 6.84831 6.9685 7.77647 6.9685 7.77647C6.9685 7.77647 7.17881 9.56813 8.90644 9.53722C10.6341 9.50628 11.4537 8.17066 11.2155 6.84831C10.9773 5.52594 9.69397 4.12078 7.44166 4.40472C5.18934 4.68866 4.26975 6.96441 4.67509 9.39641C5.08044 11.8284 7.99397 13.2376 10.2847 12.7306C12.5756 12.2236 14.8572 10.5652 14.8572 6.36041C14.8572 2.15559 11.2155 -0.371881 6.87316 0.0446606C2.53081 0.4612 -0.164719 4.25756 0.00781821 8.81897C0.180356 13.3804 4.50859 15.8647 8.16856 15.9927C11.8285 16.1208 14.0722 14.0021 14.0722 14.0021C14.0722 14.0021 14.5768 13.5521 14.379 13.2008C14.1812 12.8494 13.6852 13.287 13.6852 13.287Z" fill="#212121"/>
</svg>
