<svg width="11" height="16" viewBox="0 0 11 16" fill="none" xmlns="http://www.w3.org/2000/svg">
<path fill-rule="evenodd" clip-rule="evenodd" d="M10.3804 10.8286C10.3804 13.6843 8.05666 15.9993 5.19019 15.9993C2.32372 15.9993 0 13.6843 0 10.8286C0 8.05122 4.90944 0.423372 5.17869 0.00711906C5.18484 -0.00237308 5.19556 -0.002373 5.20169 0.00711916C5.47094 0.423372 10.3804 8.05122 10.3804 10.8286ZM4.325 14.3416C1.69125 13.7653 2.14194 10.8478 2.14194 10.8478C2.14194 10.8478 2.86112 12.609 4.60641 13.1795C6.35166 13.75 8.46078 12.9133 8.46078 12.9133C8.46078 12.9133 6.95875 14.9178 4.325 14.3416Z" fill="#212121"/>
</svg>
