<svg width="14" height="16" viewBox="0 0 14 16" fill="none" xmlns="http://www.w3.org/2000/svg">
<path fill-rule="evenodd" clip-rule="evenodd" d="M9.50619 0.015665C9.51784 -0.000951152 9.54072 -0.00498931 9.55734 0.00664544L10.6934 0.802131C10.71 0.813766 10.7141 0.836666 10.7024 0.853281L9.12122 3.11148C9.88994 3.35706 10.4137 3.62197 10.4137 3.62197C10.4137 3.62197 9.13353 5.82391 6.96231 5.82391C4.79109 5.82391 3.24825 3.77166 3.24825 3.77166C3.24825 3.77166 3.79531 3.42253 4.60625 3.1231L2.87187 1.05617C2.85884 1.04063 2.86087 1.01747 2.87641 1.00443L3.93881 0.112958C3.95438 0.0999194 3.97753 0.101946 3.99056 0.117485L6.18656 2.73458C6.37459 2.71331 6.56616 2.70142 6.75947 2.70142C7.03731 2.70142 7.31481 2.72254 7.58572 2.75838L9.50619 0.015665ZM9.93575 5.92819C10.5152 5.51437 11.3919 4.43431 11.3919 4.43431C11.3919 4.43431 13.6314 6.209 13.6314 9.972C13.6314 13.735 9.75966 15.9998 9.75966 15.9998C9.75966 15.9998 7.90981 14.1316 7.45569 11.7634C7.00159 9.39528 8.12744 6.76572 8.12744 6.76572C8.12744 6.76572 9.35631 6.342 9.93575 5.92819ZM3.69566 5.92819C3.11625 5.51437 2.2395 4.43431 2.2395 4.43431C2.2395 4.43431 0 6.209 0 9.972C0 13.735 3.87175 15.9998 3.87175 15.9998C3.87175 15.9998 5.72159 14.1316 6.17572 11.7634C6.62981 9.39528 5.50397 6.76572 5.50397 6.76572C5.50397 6.76572 4.27509 6.342 3.69566 5.92819Z" fill="#212121"/>
</svg>
