<svg width="14" height="16" viewBox="0 0 14 16" fill="none" xmlns="http://www.w3.org/2000/svg">
<path fill-rule="evenodd" clip-rule="evenodd" d="M7.77194 7.96503C7.88038 7.89891 7.97237 7.76034 8.04656 7.60634C9.02297 8.00541 9.70912 8.94841 9.70912 10.0481C9.70912 11.5091 8.49819 12.6934 7.00444 12.6934C6.39125 12.6934 5.82572 12.4938 5.37206 12.1575C5.22325 12.087 5.10081 12.0193 5.00063 11.9639C4.84522 11.878 4.74331 11.8217 4.6795 11.8305C4.49297 11.8562 4.54713 12.0278 4.59634 12.1837C4.62975 12.2896 4.66091 12.3883 4.61269 12.429C4.56225 12.4716 4.39888 12.3158 4.20797 12.1338C3.94809 11.886 3.63722 11.5896 3.49063 11.6787C3.37472 11.7491 3.48725 11.94 3.625 12.1738L3.63522 12.1911C3.69341 12.2899 3.76084 12.3906 3.82238 12.4824C3.94747 12.669 4.04822 12.8193 3.99781 12.8448C3.93688 12.8755 3.51231 12.589 3.15453 12.1911C3.01644 12.0376 2.88269 11.8712 2.75838 11.7165V11.7165C2.48628 11.3779 2.25959 11.0959 2.13234 11.1293C1.97927 11.1695 2.09507 11.4852 2.26522 11.7891C2.34478 11.9312 2.43838 12.0758 2.51941 12.2011V12.2012C2.64544 12.396 2.74109 12.5438 2.70641 12.562C2.65959 12.5865 2.24769 12.1848 1.96792 11.6787C1.80175 11.378 1.66222 11.0457 1.54925 10.7768C1.42675 10.4851 1.3355 10.2678 1.27541 10.2459C1.06664 10.1699 1.06664 10.5956 1.15037 11.2099C1.16129 11.2901 1.17756 11.3742 1.19759 11.4598C2.00959 14.087 4.504 16 7.45522 16C11.0651 16 13.9915 13.1379 13.9915 9.60725C13.9915 6.24688 11.3406 3.49209 7.9725 3.23419C7.97675 3.07589 8.05937 2.76197 8.05937 2.76197C8.05937 2.76197 8.65397 1.32335 8.68541 1.01593C8.68747 0.995531 8.68994 0.973359 8.69259 0.949747C8.72962 0.617591 8.79853 0 8.26722 0C7.98347 0 7.85153 0.211083 7.70063 0.452497C7.64269 0.545175 7.58194 0.642328 7.50875 0.733719C6.98163 1.39199 6.09525 2.21403 5.59266 2.65197C4.53034 3.57762 3.48809 4.33838 2.88022 4.78206L2.88019 4.78209C2.60372 4.98387 2.41713 5.12009 2.35938 5.17637C1.92419 5.60063 0.363807 8.41519 0.363807 8.41519C0.363807 8.41519 -0.140803 9.31819 0.0385565 9.50134C0.217916 9.68447 0.650441 9.6425 0.650441 9.6425C0.650441 9.6425 6.46109 8.30947 6.98131 8.20434C7.12138 8.17603 7.22025 8.15969 7.29616 8.14716C7.50225 8.11313 7.53925 8.107 7.77194 7.96503ZM3.66359 6.252C3.35169 6.54847 2.83441 7.25612 2.83441 7.25612C2.83441 7.25612 3.79578 7.31534 4.32525 6.81206C4.85475 6.30875 4.73344 5.45103 4.73344 5.45103C4.73344 5.45103 3.97547 5.95553 3.66359 6.252Z" fill="#212121"/>
</svg>
