<svg width="16" height="16" viewBox="0 0 16 16" fill="none" xmlns="http://www.w3.org/2000/svg">
<path fill-rule="evenodd" clip-rule="evenodd" d="M12.0094 1.22006L12.0586 5.5435L8.28771 7.35372L8.24121 3.27156L12.0094 1.22006Z" fill="#212121"/>
<path fill-rule="evenodd" clip-rule="evenodd" d="M15.7897 8.03272L12.0567 10.1679L8.32153 8.02934L12.0548 6.06834L15.7897 8.03272Z" fill="#212121"/>
<path fill-rule="evenodd" clip-rule="evenodd" d="M7.65762 8.03272L3.92465 10.1679L0.189453 8.02934L3.92272 6.06834L7.65762 8.03272Z" fill="#212121"/>
<path fill-rule="evenodd" clip-rule="evenodd" d="M3.88257 1.20235L7.75713 3.12128L7.65807 7.30303L3.99976 5.49122L3.88257 1.20235Z" fill="#212121"/>
<path fill-rule="evenodd" clip-rule="evenodd" d="M12.115 14.7977L8.24048 12.8787L8.33954 8.69694L11.9979 10.5088L12.115 14.7977Z" fill="#212121"/>
<path fill-rule="evenodd" clip-rule="evenodd" d="M4.01629 14.8366L3.96704 10.5131L7.73801 8.70291L7.78451 12.785L4.01629 14.8366Z" fill="#212121"/>
</svg>
