<svg width="16" height="14" viewBox="0 0 16 14" fill="none" xmlns="http://www.w3.org/2000/svg">
<path fill-rule="evenodd" clip-rule="evenodd" d="M0.00159721 6.89147C-0.000531394 6.88784 -0.000532462 6.88334 0.00159436 6.87969L4.02484 0.00575936C4.02694 0.00219373 4.03078 0 4.03491 0H12.0092C12.0133 0 12.0172 0.00221255 12.0193 0.00580943L15.9984 6.87975C16.0005 6.88334 16.0005 6.88781 15.9984 6.89141L12.0193 13.7576C12.0172 13.7612 12.0133 13.7634 12.0092 13.7634H4.03491C4.03078 13.7634 4.02694 13.7613 4.02484 13.7577L0.00159721 6.89147ZM11.7068 6.88172C11.7068 8.92822 10.0478 10.5872 8.00125 10.5872C5.95475 10.5872 4.29572 8.92822 4.29572 6.88172C4.29572 4.83519 5.95475 3.17619 8.00125 3.17619C10.0478 3.17619 11.7068 4.83519 11.7068 6.88172Z" fill="#212121"/>
</svg>
