<svg width="121" height="38" viewBox="0 0 121 38" fill="none" xmlns="http://www.w3.org/2000/svg">
<path d="M30 11.6166L23.7868 17.7332C18.1607 23.2718 10.5301 26.3834 2.57359 26.3834H0C8.28428 34.5389 21.7157 34.5389 30 26.3834V11.6166Z" fill="#251805"/>
<path d="M0 11.6166V26.3834L6.21321 20.2668C11.8393 14.7282 19.4699 11.6166 27.4264 11.6166H30C21.7157 3.46113 8.28428 3.46113 0 11.6166Z" fill="#251805"/>
<path d="M39.464 27V10.2H45.632C47.408 10.2 48.944 10.56 50.24 11.28C51.552 12 52.568 12.992 53.288 14.256C54.024 15.52 54.392 16.968 54.392 18.6C54.392 20.232 54.024 21.68 53.288 22.944C52.568 24.208 51.552 25.2 50.24 25.92C48.944 26.64 47.408 27 45.632 27H39.464ZM43.496 23.64H45.536C46.464 23.64 47.288 23.44 48.008 23.04C48.744 22.624 49.32 22.04 49.736 21.288C50.152 20.536 50.36 19.64 50.36 18.6C50.36 17.56 50.152 16.664 49.736 15.912C49.32 15.16 48.744 14.584 48.008 14.184C47.288 13.768 46.464 13.56 45.536 13.56H43.496V23.64ZM62.8865 27C61.4945 27 60.2705 26.744 59.2145 26.232C58.1585 25.704 57.3345 24.984 56.7425 24.072C56.1665 23.144 55.8785 22.072 55.8785 20.856C55.8785 19.512 56.1585 18.36 56.7185 17.4C57.2785 16.44 58.0225 15.704 58.9505 15.192C59.8945 14.664 60.9345 14.4 62.0705 14.4C63.3665 14.4 64.4465 14.672 65.3105 15.216C66.1905 15.76 66.8545 16.504 67.3025 17.448C67.7505 18.376 67.9745 19.44 67.9745 20.64C67.9745 20.848 67.9585 21.096 67.9265 21.384C67.9105 21.656 67.8865 21.872 67.8545 22.032H59.7905C59.8865 22.448 60.0705 22.8 60.3425 23.088C60.6145 23.376 60.9585 23.592 61.3745 23.736C61.7905 23.864 62.2545 23.928 62.7665 23.928H66.5345V27H62.8865ZM59.6945 19.704H64.3745C64.3425 19.448 64.2945 19.2 64.2305 18.96C64.1665 18.72 64.0625 18.512 63.9185 18.336C63.7905 18.144 63.6385 17.984 63.4625 17.856C63.2865 17.712 63.0785 17.6 62.8385 17.52C62.6145 17.44 62.3585 17.4 62.0705 17.4C61.7025 17.4 61.3745 17.464 61.0865 17.592C60.7985 17.72 60.5585 17.896 60.3665 18.12C60.1745 18.328 60.0225 18.576 59.9105 18.864C59.8145 19.136 59.7425 19.416 59.6945 19.704ZM78.374 27C76.998 27 75.758 26.792 74.654 26.376C73.55 25.944 72.614 25.344 71.846 24.576C71.078 23.808 70.486 22.92 70.07 21.912C69.654 20.888 69.446 19.784 69.446 18.6C69.446 17.416 69.654 16.32 70.07 15.312C70.486 14.288 71.078 13.392 71.846 12.624C72.63 11.856 73.566 11.264 74.654 10.848C75.758 10.416 76.998 10.2 78.374 10.2H80.966V13.56H78.47C77.718 13.56 77.03 13.688 76.406 13.944C75.798 14.2 75.27 14.56 74.822 15.024C74.39 15.472 74.054 16 73.814 16.608C73.59 17.216 73.478 17.88 73.478 18.6C73.478 19.32 73.59 19.984 73.814 20.592C74.054 21.2 74.39 21.736 74.822 22.2C75.27 22.648 75.798 23 76.406 23.256C77.03 23.512 77.718 23.64 78.47 23.64H80.966V27H78.374ZM88.1172 27.288C87.0293 27.288 86.0693 27.008 85.2373 26.448C84.4053 25.888 83.7573 25.136 83.2933 24.192C82.8293 23.232 82.5973 22.152 82.5973 20.952C82.5973 19.704 82.8693 18.592 83.4133 17.616C83.9573 16.624 84.7253 15.84 85.7173 15.264C86.7253 14.688 87.9093 14.4 89.2693 14.4C90.6453 14.4 91.8133 14.688 92.7733 15.264C93.7493 15.824 94.4933 16.6 95.0052 17.592C95.5333 18.568 95.7973 19.664 95.7973 20.88V27H92.1493V25.032H92.0533C91.8293 25.464 91.5413 25.856 91.1893 26.208C90.8373 26.544 90.4053 26.808 89.8933 27C89.3973 27.192 88.8053 27.288 88.1172 27.288ZM89.2213 24.072C89.7813 24.072 90.2693 23.936 90.6853 23.664C91.1173 23.376 91.4453 22.984 91.6693 22.488C91.8933 21.992 92.0053 21.44 92.0053 20.832C92.0053 20.24 91.8933 19.704 91.6693 19.224C91.4453 18.744 91.1173 18.368 90.6853 18.096C90.2693 17.808 89.7813 17.664 89.2213 17.664C88.6453 17.664 88.1413 17.808 87.7093 18.096C87.2773 18.368 86.9493 18.744 86.7253 19.224C86.5013 19.704 86.3893 20.24 86.3893 20.832C86.3893 21.44 86.5013 21.992 86.7253 22.488C86.9493 22.984 87.2773 23.376 87.7093 23.664C88.1413 23.936 88.6453 24.072 89.2213 24.072ZM99.4843 27V17.736H97.4203V14.688H99.4843V13.08C99.4843 11.96 99.8043 11.08 100.444 10.44C101.084 9.8 101.964 9.48 103.084 9.48H106.828V12.528H103.9C103.708 12.528 103.54 12.6 103.396 12.744C103.268 12.872 103.204 13.032 103.204 13.224V14.688H106.3V17.736H103.204V27H99.4843ZM114.355 27C112.963 27 111.739 26.744 110.683 26.232C109.627 25.704 108.803 24.984 108.211 24.072C107.635 23.144 107.347 22.072 107.347 20.856C107.347 19.512 107.627 18.36 108.187 17.4C108.747 16.44 109.491 15.704 110.419 15.192C111.363 14.664 112.403 14.4 113.539 14.4C114.835 14.4 115.915 14.672 116.779 15.216C117.659 15.76 118.323 16.504 118.771 17.448C119.219 18.376 119.443 19.44 119.443 20.64C119.443 20.848 119.427 21.096 119.395 21.384C119.379 21.656 119.355 21.872 119.323 22.032H111.259C111.355 22.448 111.539 22.8 111.811 23.088C112.083 23.376 112.427 23.592 112.843 23.736C113.259 23.864 113.723 23.928 114.235 23.928H118.003V27H114.355ZM111.163 19.704H115.843C115.811 19.448 115.763 19.2 115.699 18.96C115.635 18.72 115.531 18.512 115.387 18.336C115.259 18.144 115.107 17.984 114.931 17.856C114.755 17.712 114.547 17.6 114.307 17.52C114.083 17.44 113.827 17.4 113.539 17.4C113.171 17.4 112.843 17.464 112.555 17.592C112.267 17.72 112.027 17.896 111.835 18.12C111.643 18.328 111.491 18.576 111.379 18.864C111.283 19.136 111.211 19.416 111.163 19.704Z" fill="#251805"/>
</svg>
