<svg width="32" height="32" viewBox="0 0 32 32" fill="none" xmlns="http://www.w3.org/2000/svg">
<path d="M17.3367 3.0016C18.2853 2.99796 19.2339 3.00749 20.1823 3.0302L20.4345 3.0393C20.7256 3.0497 21.0129 3.0627 21.36 3.0783C22.7432 3.14329 23.6869 3.36169 24.515 3.68278C25.373 4.01297 26.0958 4.46015 26.8185 5.18292C27.4794 5.83239 27.9909 6.61801 28.3174 7.48515C28.6385 8.31322 28.8569 9.25829 28.9219 10.6414C28.9375 10.9872 28.9505 11.2758 28.9609 11.567L28.9687 11.8192C28.9918 12.7671 29.0017 13.7153 28.9986 14.6635L28.9999 15.6333V17.3362C29.0031 18.2848 28.9931 19.2335 28.97 20.1818L28.9622 20.434C28.9518 20.7252 28.9388 21.0125 28.9232 21.3596C28.8582 22.7427 28.6372 23.6865 28.3174 24.5146C27.9919 25.3826 27.4803 26.1689 26.8185 26.8181C26.1685 27.4789 25.3825 27.9903 24.515 28.3169C23.6869 28.638 22.7432 28.8564 21.36 28.9214C21.0129 28.937 20.7256 28.95 20.4345 28.9604L20.1823 28.9682C19.2339 28.9913 18.2853 29.0013 17.3367 28.9981L16.3669 28.9994H14.6653C13.7166 29.0026 12.768 28.9927 11.8196 28.9695L11.5675 28.9617C11.2589 28.9505 10.9503 28.9375 10.6419 28.9227C9.25874 28.8577 8.31497 28.6367 7.4856 28.3169C6.61812 27.9911 5.83236 27.4795 5.18338 26.8181C4.52176 26.1685 4.00981 25.3824 3.68323 24.5146C3.36214 23.6865 3.14375 22.7427 3.07875 21.3596C3.06427 21.0511 3.05127 20.7426 3.03975 20.434L3.03325 20.1818C3.00928 19.2335 2.99845 18.2849 3.00075 17.3362V14.6635C2.99712 13.7153 3.00666 12.7671 3.02935 11.8192L3.03845 11.567C3.04885 11.2758 3.06185 10.9872 3.07745 10.6414C3.14245 9.25699 3.36084 8.31452 3.68193 7.48515C4.0087 6.61758 4.52165 5.83218 5.18468 5.18423C5.83322 4.52223 6.61848 4.00981 7.4856 3.68278C8.31497 3.36169 9.25744 3.14329 10.6419 3.0783L11.5675 3.0393L11.8196 3.0328C12.7676 3.00884 13.7157 2.99801 14.664 3.0003L17.3367 3.0016ZM16.0003 9.50008C14.2765 9.50008 12.6232 10.1849 11.4043 11.4038C10.1853 12.6228 9.50053 14.276 9.50053 15.9999C9.50053 17.7237 10.1853 19.3769 11.4043 20.5959C12.6232 21.8148 14.2765 22.4996 16.0003 22.4996C17.7242 22.4996 19.3774 21.8148 20.5963 20.5959C21.8153 19.3769 22.5001 17.7237 22.5001 15.9999C22.5001 14.276 21.8153 12.6228 20.5963 11.4038C19.3774 10.1849 17.7242 9.50008 16.0003 9.50008ZM16.0003 12.1C16.5124 12.0999 17.0196 12.2007 17.4928 12.3966C17.966 12.5925 18.3959 12.8797 18.7581 13.2418C19.1203 13.6039 19.4076 14.0337 19.6037 14.5068C19.7998 14.98 19.9007 15.4871 19.9008 15.9992C19.9009 16.5113 19.8001 17.0185 19.6042 17.4917C19.4083 17.9649 19.1211 18.3948 18.759 18.757C18.397 19.1192 17.9671 19.4065 17.494 19.6026C17.0209 19.7987 16.5137 19.8996 16.0016 19.8997C14.9673 19.8997 13.9754 19.4888 13.244 18.7575C12.5126 18.0261 12.1017 17.0342 12.1017 15.9999C12.1017 14.9655 12.5126 13.9736 13.244 13.2422C13.9754 12.5109 14.9673 12.1 16.0016 12.1M22.8264 7.55014C22.407 7.56693 22.0104 7.74533 21.7196 8.04799C21.4288 8.35065 21.2664 8.75408 21.2664 9.17379C21.2664 9.5935 21.4288 9.99693 21.7196 10.2996C22.0104 10.6022 22.407 10.7806 22.8264 10.7974C23.2573 10.7974 23.6706 10.6262 23.9754 10.3215C24.2801 10.0168 24.4513 9.60345 24.4513 9.17249C24.4513 8.74153 24.2801 8.32822 23.9754 8.02348C23.6706 7.71874 23.2573 7.54754 22.8264 7.54754" fill="black"/>
</svg>
