<svg width="168" height="96" viewBox="0 0 168 96" fill="none" xmlns="http://www.w3.org/2000/svg">
<g filter="url(#filter0_d_101_132)">
<rect x="20" y="10" width="128" height="56" rx="28" fill="#262831" shape-rendering="crispEdges"/>
<path d="M62.4586 39.4633C61.6325 39.6827 60.7815 39.7938 59.9268 39.7937C57.3243 39.7937 54.8804 38.7819 53.0446 36.9462C51.8391 35.7338 50.9725 34.2266 50.531 32.5748C50.0896 30.923 50.0888 29.1844 50.5287 27.5322C50.5836 27.3257 50.5833 27.1083 50.5277 26.9019C50.4721 26.6955 50.3632 26.5073 50.2119 26.3563C50.0606 26.2053 49.8723 26.0967 49.6658 26.0414C49.4593 25.9862 49.242 25.9862 49.0355 26.0415C46.9671 26.5927 45.0801 27.6781 43.5636 29.1888C38.8121 33.9403 38.8121 41.6745 43.5636 46.4284C44.693 47.5641 46.0364 48.4645 47.5161 49.0776C48.9958 49.6906 50.5824 50.0041 52.184 50C53.7853 50.0044 55.3715 49.6912 56.8508 49.0783C58.3301 48.4655 59.6731 47.5652 60.802 46.4296C62.3139 44.9129 63.3998 43.0249 63.9506 40.9553C64.0053 40.7488 64.0048 40.5316 63.9493 40.3254C63.8937 40.1191 63.7849 39.9311 63.6339 39.78C63.4828 39.629 63.2948 39.5202 63.0885 39.4646C62.8823 39.4091 62.6651 39.4086 62.4586 39.4633ZM59.0796 44.706C58.1764 45.6143 57.1019 46.3344 55.9185 46.8246C54.7351 47.3148 53.4662 47.5655 52.1852 47.562C50.9039 47.5652 49.6346 47.3144 48.4508 46.8239C47.267 46.3335 46.1921 45.6132 45.2884 44.7048C41.4877 40.9029 41.4877 34.7155 45.2884 30.9136C46.0228 30.18 46.8707 29.5696 47.7995 29.1059C47.6635 30.86 47.9079 32.6229 48.5159 34.2739C49.1239 35.9249 50.0811 37.4252 51.3222 38.6722C52.5665 39.9172 54.0664 40.8772 55.7181 41.4856C57.3698 42.094 59.1339 42.3365 60.8886 42.1962C60.4223 43.1234 59.8118 43.9705 59.0796 44.706Z" fill="white"/>
<g clip-path="url(#clip0_101_132)">
<g clip-path="url(#clip1_101_132)">
<path d="M115.999 46.4C116.317 46.4 116.622 46.5264 116.847 46.7515C117.072 46.9765 117.199 47.2817 117.199 47.6V48.8C117.199 49.1183 117.072 49.4235 116.847 49.6485C116.622 49.8736 116.317 50 115.999 50C115.68 50 115.375 49.8736 115.15 49.6485C114.925 49.4235 114.799 49.1183 114.799 48.8V47.6C114.799 47.2817 114.925 46.9765 115.15 46.7515C115.375 46.5264 115.68 46.4 115.999 46.4ZM123.635 43.94L124.484 44.7884C124.702 45.0147 124.823 45.3178 124.821 45.6325C124.818 45.9471 124.692 46.2481 124.469 46.4706C124.247 46.6931 123.946 46.8193 123.631 46.822C123.317 46.8247 123.013 46.7038 122.787 46.4852L121.939 45.6368C121.72 45.4105 121.599 45.1074 121.602 44.7927C121.605 44.4781 121.731 44.1771 121.953 43.9546C122.176 43.7321 122.477 43.6059 122.791 43.6032C123.106 43.6005 123.409 43.7214 123.635 43.94ZM108.362 43.94C108.578 43.7248 108.868 43.5998 109.172 43.5905C109.477 43.5812 109.774 43.6883 110.003 43.8899C110.231 44.0915 110.375 44.3727 110.404 44.6762C110.432 44.9797 110.345 45.2828 110.158 45.524L110.059 45.6368L109.21 46.4852C108.994 46.7004 108.705 46.8254 108.4 46.8347C108.095 46.844 107.798 46.7369 107.57 46.5353C107.341 46.3337 107.198 46.0525 107.169 45.749C107.14 45.4455 107.227 45.1424 107.414 44.9012L107.513 44.7884L108.362 43.94ZM115.999 30.8C117.908 30.8 119.74 31.5586 121.09 32.9088C122.44 34.2591 123.199 36.0904 123.199 38C123.199 39.9096 122.44 41.7409 121.09 43.0912C119.74 44.4414 117.908 45.2 115.999 45.2C114.089 45.2 112.258 44.4414 110.908 43.0912C109.557 41.7409 108.799 39.9096 108.799 38C108.799 36.0904 109.557 34.2591 110.908 32.9088C112.258 31.5586 114.089 30.8 115.999 30.8ZM115.999 33.2C114.726 33.2 113.505 33.7057 112.605 34.6059C111.704 35.5061 111.199 36.727 111.199 38C111.199 39.273 111.704 40.4939 112.605 41.3941C113.505 42.2943 114.726 42.8 115.999 42.8C117.272 42.8 118.493 42.2943 119.393 41.3941C120.293 40.4939 120.799 39.273 120.799 38C120.799 36.727 120.293 35.5061 119.393 34.6059C118.493 33.7057 117.272 33.2 115.999 33.2ZM106.399 36.8C106.705 36.8003 106.999 36.9175 107.221 37.1274C107.444 37.3374 107.577 37.6243 107.595 37.9297C107.613 38.235 107.514 38.5357 107.318 38.7702C107.121 39.0047 106.843 39.1555 106.539 39.1916L106.399 39.2H105.199C104.893 39.1997 104.599 39.0825 104.376 38.8726C104.154 38.6626 104.02 38.3757 104.002 38.0703C103.984 37.765 104.083 37.4643 104.28 37.2298C104.476 36.9953 104.755 36.8445 105.058 36.8084L105.199 36.8H106.399ZM126.799 36.8C127.117 36.8 127.422 36.9264 127.647 37.1515C127.872 37.3765 127.999 37.6817 127.999 38C127.999 38.3183 127.872 38.6235 127.647 38.8485C127.422 39.0736 127.117 39.2 126.799 39.2H125.599C125.28 39.2 124.975 39.0736 124.75 38.8485C124.525 38.6235 124.399 38.3183 124.399 38C124.399 37.6817 124.525 37.3765 124.75 37.1515C124.975 36.9264 125.28 36.8 125.599 36.8H126.799ZM107.513 29.5148C107.72 29.3082 107.995 29.1841 108.287 29.1657C108.578 29.1474 108.867 29.2361 109.097 29.4152L109.21 29.5148L110.059 30.3632C110.274 30.5791 110.399 30.8689 110.408 31.1737C110.417 31.4784 110.31 31.7753 110.109 32.0039C109.907 32.2326 109.626 32.376 109.323 32.4049C109.019 32.4338 108.716 32.3461 108.475 32.1596L108.362 32.06L107.513 31.2116C107.289 30.9866 107.162 30.6814 107.162 30.3632C107.162 30.045 107.289 29.7398 107.513 29.5148ZM124.484 29.5148C124.709 29.7398 124.835 30.045 124.835 30.3632C124.835 30.6814 124.709 30.9866 124.484 31.2116L123.635 32.06C123.525 32.1746 123.392 32.266 123.246 32.3289C123.1 32.3918 122.942 32.4249 122.783 32.4263C122.623 32.4277 122.465 32.3973 122.318 32.337C122.17 32.2766 122.036 32.1875 121.924 32.0749C121.811 31.9622 121.722 31.8282 121.662 31.6807C121.601 31.5333 121.571 31.3753 121.572 31.2159C121.574 31.0566 121.607 30.8991 121.67 30.7527C121.733 30.6063 121.824 30.4739 121.939 30.3632L122.787 29.5148C123.012 29.2898 123.317 29.1635 123.635 29.1635C123.954 29.1635 124.259 29.2898 124.484 29.5148ZM115.999 26C116.317 26 116.622 26.1264 116.847 26.3515C117.072 26.5765 117.199 26.8817 117.199 27.2V28.4C117.199 28.7183 117.072 29.0235 116.847 29.2485C116.622 29.4736 116.317 29.6 115.999 29.6C115.68 29.6 115.375 29.4736 115.15 29.2485C114.925 29.0235 114.799 28.7183 114.799 28.4V27.2C114.799 26.8817 114.925 26.5765 115.15 26.3515C115.375 26.1264 115.68 26 115.999 26Z" fill="white" fill-opacity="0.36"/>
</g>
</g>
</g>
<defs>
<filter id="filter0_d_101_132" x="0" y="0" width="168" height="96" filterUnits="userSpaceOnUse" color-interpolation-filters="sRGB">
<feFlood flood-opacity="0" result="BackgroundImageFix"/>
<feColorMatrix in="SourceAlpha" type="matrix" values="0 0 0 0 0 0 0 0 0 0 0 0 0 0 0 0 0 0 127 0" result="hardAlpha"/>
<feOffset dy="10"/>
<feGaussianBlur stdDeviation="10"/>
<feComposite in2="hardAlpha" operator="out"/>
<feColorMatrix type="matrix" values="0 0 0 0 0 0 0 0 0 0 0 0 0 0 0 0 0 0 0.15 0"/>
<feBlend mode="normal" in2="BackgroundImageFix" result="effect1_dropShadow_101_132"/>
<feBlend mode="normal" in="SourceGraphic" in2="effect1_dropShadow_101_132" result="shape"/>
</filter>
<clipPath id="clip0_101_132">
<rect width="32" height="32" fill="white" transform="translate(100 22)"/>
</clipPath>
<clipPath id="clip1_101_132">
<rect width="32" height="32" fill="white" transform="translate(100 22)"/>
</clipPath>
</defs>
</svg>
