<svg width="25" height="27" viewBox="0 0 25 27" fill="none" xmlns="http://www.w3.org/2000/svg">
<path d="M10.8 0V8.552C8.95376 8.20934 7.04676 8.44407 5.33872 9.22423C3.63068 10.0044 2.20462 11.2921 1.25474 12.9119C0.304861 14.5317 -0.12266 16.4049 0.0303974 18.2764C0.183454 20.148 0.90965 21.9268 2.11009 23.3708C3.31052 24.8147 4.92685 25.8536 6.73896 26.3459C8.55106 26.8381 10.4709 26.7599 12.2369 26.1218C14.0029 25.4838 15.5294 24.3168 16.6084 22.78C17.6873 21.2432 18.2664 19.4111 18.2667 17.5333V12.552C19.7 13.1616 21.2425 13.4728 22.8 13.4667H24.1333V6H22.8C20.2627 6 18.2667 3.95067 18.2667 1.33333V0H10.8ZM13.4667 2.66667H15.7173C16.2427 5.62667 18.4907 7.99467 21.4667 8.54667V10.704C20.0827 10.5013 18.8333 9.98133 17.676 9.20667L15.6 7.81733V17.5333C15.5999 18.8265 15.2121 20.0899 14.4866 21.1604C13.7612 22.231 12.7314 23.0594 11.5304 23.5387C10.3293 24.0181 9.01217 24.1263 7.74898 23.8495C6.4858 23.5727 5.33462 22.9235 4.44414 21.9857C3.55366 21.048 2.96477 19.8649 2.75353 18.5891C2.54229 17.3133 2.71841 16.0034 3.25914 14.8288C3.79987 13.6541 4.68036 12.6685 5.78691 11.9993C6.89346 11.3301 8.17523 11.008 9.46667 11.0747V13.2133C8.59797 13.1463 7.72923 13.3427 6.97385 13.7769C6.21846 14.2111 5.6115 14.8629 5.23219 15.6473C4.85289 16.4317 4.71884 17.3122 4.84755 18.174C4.97626 19.0357 5.36175 19.8386 5.95371 20.4779C6.54567 21.1172 7.3166 21.5633 8.1659 21.7578C9.01519 21.9523 9.90341 21.8863 10.7146 21.5683C11.5258 21.2504 12.2223 20.6953 12.7133 19.9755C13.2042 19.2557 13.4668 18.4046 13.4667 17.5333V2.66667ZM7.46667 17.5333C7.46667 17.0913 7.64227 16.6674 7.95483 16.3548C8.26739 16.0423 8.69131 15.8667 9.13334 15.8667C9.57537 15.8667 9.99929 16.0423 10.3119 16.3548C10.6244 16.6674 10.8 17.0913 10.8 17.5333C10.8 17.9754 10.6244 18.3993 10.3119 18.7118C9.99929 19.0244 9.57537 19.2 9.13334 19.2C8.69131 19.2 8.26739 19.0244 7.95483 18.7118C7.64227 18.3993 7.46667 17.9754 7.46667 17.5333Z" fill="#FFF4E8"/>
</svg>
